<svg width="16" height="20" viewBox="0 0 16 20" fill="none" xmlns="http://www.w3.org/2000/svg">
<path d="M6.22711 2.59457V3.63239H9.34066V2.59457H6.22711ZM11.4163 15.5676V14.5297C11.4163 13.6699 12.1132 12.973 12.973 12.973H14.0109C14.8707 12.973 15.5676 13.6699 15.5676 14.5297V17.6432C15.5676 18.503 14.8707 19.2 14.0109 19.2H12.973C12.1132 19.2 11.4163 18.503 11.4163 17.6432V16.6054H10.3784C10.3784 17.1786 9.91382 17.6432 9.34059 17.6432H6.22704C5.65382 17.6432 5.18921 17.1786 5.18921 16.6054H4.15138V17.6432C4.15138 18.503 3.45442 19.2 2.59461 19.2H1.55678C0.69696 19.2 0 18.503 0 17.6432V14.5297C0 13.6699 0.69696 12.973 1.55678 12.973H2.59461C3.45442 12.973 4.15138 13.6699 4.15138 14.5297V15.5676H5.18921C5.18921 14.9943 5.65382 14.5297 6.22704 14.5297H7.26487V4.67022H6.22704C5.65382 4.67022 5.18921 4.20561 5.18921 3.63239H4.15138V4.67022C4.15138 5.53003 3.45442 6.22699 2.59461 6.22699H1.55678C0.69696 6.22699 0 5.53003 0 4.67022V1.55677C0 0.696959 0.69696 0 1.55678 0H2.59461C3.45442 0 4.15138 0.696959 4.15138 1.55677V2.5946H5.18921C5.18921 2.02138 5.65382 1.55677 6.22704 1.55677H9.34059C9.91382 1.55677 10.3784 2.02138 10.3784 2.5946H11.4163V1.55677C11.4163 0.696959 12.1132 0 12.973 0H14.0109C14.8707 0 15.5676 0.696959 15.5676 1.55677V4.67022C15.5676 5.53003 14.8707 6.22699 14.0109 6.22699H12.973C12.1132 6.22699 11.4163 5.53003 11.4163 4.67022V3.63239H10.3784C10.3784 4.20561 9.91382 4.67022 9.34059 4.67022H8.30277V14.5297H9.34059C9.91382 14.5297 10.3784 14.9943 10.3784 15.5676H11.4163ZM6.22711 15.5676V16.6054H9.34066V15.5676H6.22711ZM1.55705 1.03766C1.27044 1.03766 1.03807 1.27002 1.03807 1.55664V4.67008C1.03807 4.95669 1.27043 5.18906 1.55705 5.18906H2.59488C2.88149 5.18906 3.11386 4.9567 3.11386 4.67008V1.55664C3.11386 1.27003 2.8815 1.03766 2.59488 1.03766H1.55705ZM12.9732 1.03766C12.6866 1.03766 12.4542 1.27002 12.4542 1.55664V4.67008C12.4542 4.95669 12.6865 5.18906 12.9732 5.18906H14.011C14.2976 5.18906 14.53 4.9567 14.53 4.67008V1.55664C14.53 1.27003 14.2976 1.03766 14.011 1.03766H12.9732ZM1.55705 14.0107C1.27044 14.0107 1.03807 14.243 1.03807 14.5296V17.6431C1.03807 17.9297 1.27043 18.1621 1.55705 18.1621H2.59488C2.88149 18.1621 3.11386 17.9297 3.11386 17.6431V14.5296C3.11386 14.243 2.8815 14.0107 2.59488 14.0107H1.55705ZM12.9732 14.0107C12.6866 14.0107 12.4542 14.243 12.4542 14.5296V17.6431C12.4542 17.9297 12.6865 18.1621 12.9732 18.1621H14.011C14.2976 18.1621 14.53 17.9297 14.53 17.6431V14.5296C14.53 14.243 14.2976 14.0107 14.011 14.0107H12.9732Z" fill="#060606"/>
</svg>
