<svg width="24" height="24" viewBox="0 0 24 24" fill="none" xmlns="http://www.w3.org/2000/svg">
<g clip-path="url(#clip0_4117_6359)">
<path fill-rule="evenodd" clip-rule="evenodd" d="M3.48302 22.1936L7.00783 18.228C7.18487 18.0288 7.16707 17.724 6.9679 17.547C6.76872 17.3699 6.46391 17.388 6.28688 17.5872L2.76207 21.5527C2.58503 21.7519 2.60283 22.0567 2.802 22.2338C3.00118 22.4108 3.30599 22.3927 3.48302 22.1936Z" fill="#060606" stroke="black" stroke-width="0.25"/>
<path fill-rule="evenodd" clip-rule="evenodd" d="M14.7786 10.937L10.2921 15.9845C9.93815 16.3827 9.32839 16.4187 8.93004 16.0646L8.20908 15.4238C7.81075 15.0697 7.77499 14.4599 8.12894 14.0617L12.6154 9.01425L14.7786 10.937ZM8.28929 16.7855C9.08583 17.4935 10.3053 17.4219 11.0133 16.6254L15.8201 11.2175C15.9972 11.0183 15.9791 10.7135 15.7799 10.5365L12.8958 7.97289C12.6966 7.79585 12.3918 7.81365 12.2147 8.01282L7.4079 13.4207C6.69989 14.2173 6.77179 15.4367 7.56834 16.1447L8.28929 16.7855Z" fill="#060606" stroke="black" stroke-width="0.25"/>
<path fill-rule="evenodd" clip-rule="evenodd" d="M12.6159 9.0157L14.7791 10.9384C14.9782 11.1155 15.2831 11.0974 15.46 10.8984L20.2668 5.49045C20.4439 5.29128 20.4259 4.9866 20.2268 4.80956L18.0636 2.88682C17.8644 2.70978 17.5598 2.72771 17.3827 2.92688L12.5758 8.33481C12.3989 8.53383 12.4167 8.83866 12.6159 9.0157ZM17.7833 3.92818L19.2255 5.21011L15.0593 9.89723L13.6171 8.61531L17.7833 3.92818Z" fill="#060606" stroke="black" stroke-width="0.25"/>
<path fill-rule="evenodd" clip-rule="evenodd" d="M18.7833 3.52634L20.706 1.36317C20.8829 1.16415 21.1882 1.14619 21.387 1.32295C21.5859 1.49972 21.6039 1.80497 21.427 2.00399L19.5042 4.16716L18.7833 3.52634ZM19.224 5.20866C19.4231 5.38556 19.7279 5.36777 19.9049 5.1686L22.1481 2.64495C22.6789 2.04773 22.6249 1.13271 22.0279 0.601998C21.4308 0.0712859 20.5158 0.124981 19.9849 0.722208L17.7418 3.24585C17.5647 3.44502 17.5828 3.74983 17.7818 3.92674L19.224 5.20866Z" fill="#060606" stroke="black" stroke-width="0.25"/>
<path fill-rule="evenodd" clip-rule="evenodd" d="M8.92771 16.0672L8.20676 15.4264C8.13071 15.3588 8.06566 15.274 8.00767 15.1681C7.84732 14.8757 7.44581 14.8302 7.22425 15.0795L6.04519 16.406C5.60193 16.9047 5.64703 17.6687 6.14602 18.1122L6.50213 18.4287C7.00112 18.8723 7.76513 18.8275 8.20839 18.3288L9.38744 17.0023C9.60901 16.753 9.51679 16.3596 9.20756 16.2347C9.09565 16.1895 9.00378 16.1348 8.92773 16.0672L8.92771 16.0672ZM8.28689 16.7882L7.48727 17.6878C7.39794 17.7883 7.24404 17.7973 7.14309 17.7076L6.78699 17.3911C6.68604 17.3014 6.67699 17.1475 6.76631 17.047L7.56593 16.1474L8.28689 16.7882Z" fill="#060606" stroke="black" stroke-width="0.25"/>
</g>
<defs>
<clipPath id="clip0_4117_6359">
<rect width="24" height="24" fill="white"/>
</clipPath>
</defs>
</svg>
