<svg width="24" height="24" viewBox="0 0 24 24" fill="none" xmlns="http://www.w3.org/2000/svg">
<path d="M18.2396 8.5011H6.2396C6.0096 8.5011 5.7996 8.40107 5.6596 8.22107C5.5196 8.05107 5.4596 7.81113 5.5096 7.59113L6.35959 3.54108C6.63959 2.22108 7.23959 0.871094 9.60959 0.871094H14.8796C17.2496 0.871094 17.8496 2.22108 18.1296 3.54108L18.9796 7.59113C19.0296 7.81113 18.9696 8.04107 18.8296 8.22107C18.6796 8.40107 18.4696 8.5011 18.2396 8.5011ZM7.1596 7.0011H17.3096L16.6496 3.85107C16.4396 2.84107 16.1896 2.37109 14.8696 2.37109H9.5996C8.2796 2.37109 8.0296 2.84107 7.8196 3.85107L7.1596 7.0011Z" fill="#060606"/>
<path d="M18.2101 16.75H16.8001C15.4501 16.75 15.1701 15.92 15.0301 15.47L14.8801 15.02C14.7001 14.51 14.7001 14.51 14.1701 14.51H10.3301C9.79008 14.51 9.78008 14.53 9.62008 15.02L9.47008 15.47C9.32008 15.92 9.04008 16.76 7.69008 16.76H6.28007C5.63007 16.76 5.02008 16.49 4.58008 16.01C4.16008 15.55 3.95008 14.92 4.01008 14.3L4.43008 9.72998C4.56008 8.30998 5.02008 7 7.46008 7H17.0301C19.4701 7 19.9301 8.30998 20.0601 9.72998L20.4801 14.3C20.5401 14.92 20.3301 15.54 19.9101 16.01C19.4701 16.48 18.8601 16.75 18.2101 16.75ZM16.5401 15.23C16.5601 15.23 16.6401 15.25 16.8001 15.25H18.2101C18.4401 15.25 18.6501 15.16 18.8001 14.99C18.9401 14.83 19.0101 14.64 18.9901 14.43L18.5701 9.85999C18.4801 8.91999 18.4401 8.48999 17.0301 8.48999H7.46008C6.05008 8.48999 6.01007 8.91999 5.92007 9.85999L5.50007 14.43C5.48007 14.64 5.55008 14.84 5.69008 14.99C5.84008 15.16 6.05007 15.25 6.28007 15.25H7.69008C7.91008 15.25 7.97009 15.22 7.98009 15.22C7.98009 15.21 8.02008 15.09 8.05008 15L8.20009 14.55C8.40009 13.94 8.71009 13.01 10.3401 13.01H14.1801C15.7901 13.01 16.0901 13.89 16.3101 14.54L16.4701 15C16.4801 15.08 16.5101 15.19 16.5401 15.23Z" fill="#060606"/>
<path d="M6.24023 6.25H5.49023C5.08023 6.25 4.74023 5.91 4.74023 5.5C4.74023 5.09 5.08023 4.75 5.49023 4.75H6.24023C6.65023 4.75 6.99023 5.09 6.99023 5.5C6.99023 5.91 6.65023 6.25 6.24023 6.25Z" fill="#060606"/>
<path d="M18.9902 6.25H18.2402C17.8302 6.25 17.4902 5.91 17.4902 5.5C17.4902 5.09 17.8302 4.75 18.2402 4.75H18.9902C19.4002 4.75 19.7402 5.09 19.7402 5.5C19.7402 5.91 19.4002 6.25 18.9902 6.25Z" fill="#060606"/>
<path d="M9.99023 11.5H7.74023C7.33023 11.5 6.99023 11.16 6.99023 10.75C6.99023 10.34 7.33023 10 7.74023 10H9.99023C10.4002 10 10.7402 10.34 10.7402 10.75C10.7402 11.16 10.4002 11.5 9.99023 11.5Z" fill="#060606"/>
<path d="M16.7402 11.5H14.4902C14.0802 11.5 13.7402 11.16 13.7402 10.75C13.7402 10.34 14.0802 10 14.4902 10H16.7402C17.1502 10 17.4902 10.34 17.4902 10.75C17.4902 11.16 17.1502 11.5 16.7402 11.5Z" fill="#060606"/>
<path d="M9.05232 17.8537C9.10768 17.7705 9.17969 17.6982 9.26836 17.6371C9.62029 17.4147 10.0808 17.5167 10.3087 17.8603C10.5616 18.2566 11.1472 18.5138 11.774 18.5101C12.4092 18.5121 12.994 18.2644 13.2486 17.8453L13.2542 17.8369C13.4811 17.4955 13.9386 17.4033 14.2856 17.622C14.6354 17.8545 14.7275 18.312 14.5089 18.659C13.9554 19.5278 12.927 20.009 11.7871 20.0078C10.6333 20.0094 9.59258 19.4977 9.05895 18.6747C8.87833 18.4225 8.89178 18.0952 9.05232 17.8537Z" fill="#060606"/>
<path d="M6.50717 19.8986C6.54592 19.8403 6.58744 19.7959 6.64285 19.7487C6.95589 19.4764 7.42464 19.5118 7.69686 19.8249C8.61911 20.8942 10.1454 21.5245 11.7818 21.5195C13.4181 21.5145 14.9399 20.869 15.862 19.7889C16.1306 19.4751 16.5993 19.4384 16.9131 19.707C17.2269 19.9756 17.2663 20.4582 16.9949 20.7581C15.7987 22.1603 13.8473 23.0006 11.7782 23.0061C9.70922 23.0117 7.7611 22.185 6.54996 20.7916C6.34162 20.5451 6.32449 20.1735 6.50717 19.8986Z" fill="#060606"/>
</svg>
