<svg width="24" height="24" viewBox="0 0 24 24" fill="none" xmlns="http://www.w3.org/2000/svg">
<path d="M15.4994 14.5011H3.49936C3.26936 14.5011 3.05936 14.4011 2.91936 14.2211C2.77936 14.0511 2.71937 13.8111 2.76937 13.5911L3.61936 9.54108C3.89936 8.22108 4.49936 6.87109 6.86936 6.87109H12.1394C14.5094 6.87109 15.1094 8.22108 15.3894 9.54108L16.2394 13.5911C16.2894 13.8111 16.2294 14.0411 16.0894 14.2211C15.9394 14.4011 15.7294 14.5011 15.4994 14.5011ZM4.41936 13.0011H14.5694L13.9094 9.85107C13.6994 8.84107 13.4494 8.37109 12.1294 8.37109H6.85937C5.53937 8.37109 5.28937 8.84107 5.07937 9.85107L4.41936 13.0011Z" fill="#060606"/>
<path d="M15.4698 22.75H14.0598C12.7098 22.75 12.4298 21.92 12.2898 21.47L12.1398 21.02C11.9598 20.51 11.9598 20.51 11.4298 20.51H7.58984C7.04984 20.51 7.03985 20.53 6.87985 21.02L6.72984 21.47C6.57984 21.92 6.29984 22.76 4.94984 22.76H3.53984C2.88984 22.76 2.27984 22.49 1.83984 22.01C1.41984 21.55 1.20985 20.92 1.26985 20.3L1.68985 15.73C1.81985 14.31 2.27985 13 4.71985 13H14.2898C16.7298 13 17.1899 14.31 17.3199 15.73L17.7399 20.3C17.7999 20.92 17.5898 21.54 17.1698 22.01C16.7298 22.48 16.1198 22.75 15.4698 22.75ZM13.7998 21.23C13.8198 21.23 13.8998 21.25 14.0598 21.25H15.4698C15.6998 21.25 15.9098 21.16 16.0598 20.99C16.1998 20.83 16.2698 20.64 16.2498 20.43L15.8298 15.86C15.7398 14.92 15.6998 14.49 14.2898 14.49H4.71985C3.30985 14.49 3.26984 14.92 3.17984 15.86L2.75984 20.43C2.73984 20.64 2.80984 20.84 2.94984 20.99C3.09984 21.16 3.30984 21.25 3.53984 21.25H4.94984C5.16984 21.25 5.22985 21.22 5.23985 21.22C5.23985 21.21 5.27984 21.09 5.30984 21L5.45985 20.55C5.65985 19.94 5.96985 19.01 7.59985 19.01H11.4398C13.0498 19.01 13.3499 19.89 13.5699 20.54L13.7298 21C13.7398 21.08 13.7698 21.19 13.7998 21.23Z" fill="#060606"/>
<path d="M3.5 12.25H2.75C2.34 12.25 2 11.91 2 11.5C2 11.09 2.34 10.75 2.75 10.75H3.5C3.91 10.75 4.25 11.09 4.25 11.5C4.25 11.91 3.91 12.25 3.5 12.25Z" fill="#060606"/>
<path d="M16.25 12.25H15.5C15.09 12.25 14.75 11.91 14.75 11.5C14.75 11.09 15.09 10.75 15.5 10.75H16.25C16.66 10.75 17 11.09 17 11.5C17 11.91 16.66 12.25 16.25 12.25Z" fill="#060606"/>
<path d="M7.25 17.5H5C4.59 17.5 4.25 17.16 4.25 16.75C4.25 16.34 4.59 16 5 16H7.25C7.66 16 8 16.34 8 16.75C8 17.16 7.66 17.5 7.25 17.5Z" fill="#060606"/>
<path d="M14 17.5H11.75C11.34 17.5 11 17.16 11 16.75C11 16.34 11.34 16 11.75 16H14C14.41 16 14.75 16.34 14.75 16.75C14.75 17.16 14.41 17.5 14 17.5Z" fill="#060606"/>
<path d="M18.7101 9.49048C18.6101 9.49048 18.5101 9.47049 18.4101 9.43049C18.0301 9.26049 17.8601 8.8205 18.0201 8.4405C18.2101 8.0105 18.1001 7.38048 17.7501 6.86048C17.4001 6.33048 16.8701 5.98049 16.3801 6.00049H16.3701C15.9601 6.00049 15.6301 5.6705 15.6201 5.2605C15.6201 4.8405 15.9501 4.51049 16.3601 4.50049C17.3901 4.48049 18.3601 5.07051 18.9901 6.02051C19.6301 6.98051 19.7801 8.13052 19.3901 9.03052C19.2801 9.32052 19.0001 9.49048 18.7101 9.49048Z" fill="#060606"/>
<path d="M21.8201 10.4793C21.7501 10.4793 21.6901 10.4694 21.6201 10.4494C21.2201 10.3394 20.9901 9.92938 21.1001 9.52938C21.4801 8.16938 21.1601 6.54935 20.2501 5.18935C19.3401 3.82935 17.9601 2.91935 16.5501 2.74935C16.1401 2.69935 15.8501 2.32933 15.9001 1.91933C15.9501 1.50933 16.3301 1.20937 16.7301 1.26937C18.5601 1.48937 20.3401 2.64935 21.4901 4.36935C22.6401 6.08935 23.0301 8.16936 22.5401 9.94936C22.4501 10.2594 22.1501 10.4793 21.8201 10.4793Z" fill="#060606"/>
</svg>
