<svg width="24" height="24" viewBox="0 0 24 24" fill="none" xmlns="http://www.w3.org/2000/svg">
<path d="M22.9451 22.5951L12.4601 1.62506C12.3834 1.44614 12.2045 1.34375 11.9999 1.34375C11.7953 1.34375 11.6164 1.44597 11.5397 1.62506L1.05468 22.5951C0.977977 22.7485 0.977977 22.9531 1.08019 23.0811C1.18259 23.2345 1.336 23.3369 1.51491 23.3369H22.4849C22.664 23.3369 22.8174 23.2346 22.9196 23.1067C23.022 22.9532 23.022 22.7487 22.9453 22.5951L22.9451 22.5951ZM2.33316 22.3138L11.9998 3.00601L21.6665 22.3138H2.33316Z" fill="#060606" stroke="black" stroke-width="0.25"/>
<path d="M11.5395 6.74225L4.63476 20.5518C4.55806 20.7052 4.55806 20.9098 4.66027 21.0377C4.76249 21.1911 4.91608 21.2679 5.09499 21.2679H18.9045C19.0836 21.2679 19.237 21.1656 19.3393 21.0377C19.4415 20.8843 19.4415 20.7052 19.3648 20.5518L12.46 6.74225C12.3833 6.56315 12.2042 6.46094 11.9998 6.46094C11.7952 6.46094 11.6162 6.56333 11.5395 6.74225H11.5395ZM18.0863 20.2705H5.91342L11.9999 8.12321L18.0863 20.2705Z" fill="#060606" stroke="black" stroke-width="0.25"/>
<path d="M11.4883 12.5974V16.1775C11.4883 16.4588 11.7184 16.6889 11.9997 16.6889C12.281 16.6889 12.5112 16.4588 12.5112 16.1775V12.5974C12.5112 12.316 12.281 12.0859 11.9997 12.0859C11.7184 12.0858 11.4883 12.3161 11.4883 12.5974Z" fill="#060606" stroke="black" stroke-width="0.25"/>
<path d="M11.8962 17.4517C11.8707 17.4517 11.845 17.4772 11.794 17.4772C11.7685 17.5027 11.7428 17.5027 11.7173 17.5284C11.6918 17.5539 11.6661 17.5796 11.6406 17.5796C11.6151 17.6051 11.5894 17.6308 11.5894 17.6563C11.5639 17.6818 11.5639 17.7075 11.5382 17.733C11.5127 17.7585 11.5127 17.7842 11.5127 17.8352V17.9374C11.5127 18.0653 11.5639 18.1932 11.6661 18.2954C11.7426 18.4235 11.8705 18.4745 11.9984 18.4745C12.0751 18.4745 12.1263 18.4745 12.203 18.4233C12.2542 18.3978 12.3309 18.3721 12.3565 18.3211C12.4587 18.2189 12.5099 18.091 12.5099 17.9631C12.5099 17.8352 12.4587 17.7073 12.3565 17.6051C12.2286 17.4772 12.0751 17.4262 11.8962 17.4517L11.8962 17.4517Z" fill="#060606" stroke="black" stroke-width="0.25"/>
</svg>
