<svg width="24" height="24" viewBox="0 0 24 24" fill="none" xmlns="http://www.w3.org/2000/svg">
<path d="M22.4041 13.0636C21.6081 12.6855 20.623 12.2316 19.9914 11.9291H19.9912C19.5465 11.7182 19.0385 11.6838 18.5693 11.8325C17.9642 12.0216 16.2075 12.6325 15.7821 12.6154C15.5798 12.6051 15.3857 12.5325 15.2261 12.4074C15.005 12.2467 13.6698 11.3238 13.0668 10.9136C13.4846 10.7471 14.2013 10.4522 14.831 10.195C15.415 9.95866 15.8285 9.42855 15.9158 8.80452C16.0031 8.1805 15.7507 7.55738 15.254 7.16991C14.7571 6.78226 14.0914 6.68924 13.5074 6.92561C12.5089 7.32084 11.365 7.78022 10.4215 8.18308H10.4214C10.5819 7.81114 10.6643 7.41016 10.6635 7.00513C10.6667 6.0232 10.1884 5.10207 9.38358 4.53985C8.57859 3.97746 7.54924 3.84546 6.62841 4.18632C5.70759 4.52736 5.01233 5.29792 4.76753 6.24878C4.68244 6.05969 4.59735 5.8706 4.50854 5.6815C4.23824 5.09244 3.6777 4.68928 3.0331 4.62038C2.38868 4.5515 1.75571 4.82721 1.36706 5.34602C0.978409 5.86467 0.891803 6.54964 1.1388 7.14881C1.96709 9.16637 3.50818 12.7516 4.51039 14.1091C5.91728 16.0153 8.10314 18.8366 8.98247 19.8446C10.0093 21.0132 11.3443 21.2438 12.857 20.7674C14.3698 20.291 19.475 18.7234 20.9199 18.2165C21.3851 18.0539 21.6763 17.5868 21.6763 16.9704C21.6786 16.8108 21.6628 16.6516 21.629 16.4958C22.1791 16.4946 22.6985 16.242 23.0391 15.81C23.3796 15.378 23.5039 14.8139 23.3766 14.2787C23.2491 13.7435 22.8839 13.2959 22.3854 13.0638L22.4041 13.0636ZM7.67009 4.76435C8.2649 4.76435 8.83537 5.00054 9.25591 5.42109C9.67648 5.84165 9.91266 6.41215 9.91266 7.00691C9.91266 7.60168 9.67646 8.1722 9.25591 8.59274C8.83535 9.0133 8.26485 9.24948 7.67009 9.24948C7.07533 9.24948 6.50498 9.01329 6.0844 8.59274C5.66367 8.17217 5.42748 7.60168 5.42748 7.00691C5.42748 6.41215 5.66368 5.84163 6.0844 5.42109C6.50496 5.00053 7.07528 4.76435 7.67009 4.76435ZM7.5774 10.8646C7.21239 10.5436 6.88163 10.1855 6.59041 9.79618C6.96758 9.94306 7.37176 10.0076 7.77596 9.98527C7.64376 10.2595 7.57589 10.5602 7.57741 10.8646H7.5774ZM20.6704 17.5037C19.2314 18.0086 14.0523 19.5969 12.6304 20.047C11.3067 20.4612 10.3348 20.2361 9.55187 19.3456C8.68019 18.3547 6.5264 15.5637 5.11955 13.6598C4.17409 12.3683 2.66136 8.84545 1.83882 6.85253C1.68991 6.49866 1.73971 6.09227 1.96966 5.78484C2.19961 5.4774 2.57544 5.31498 2.957 5.35786C3.33856 5.40092 3.66863 5.64302 3.82427 5.99403C4.39155 7.23832 5.14792 8.86062 5.5261 9.53189C6.2504 10.7818 7.14097 11.5646 8.36248 12.5195C9.87522 13.7051 12.5679 15.6717 13.1674 16.1255C14.6801 17.26 16.0605 16.7324 17.1743 16.3146C17.596 16.1538 17.6073 16.1557 18.1045 15.9364C18.8212 15.6186 19.3393 15.3899 20.1845 15.7152C20.6704 15.9043 20.9238 16.4942 20.9163 16.9537C20.9203 17.1807 20.8502 17.4396 20.6706 17.504L20.6704 17.5037ZM22.5859 15.1438V15.144C22.4743 15.38 22.2778 15.5654 22.0355 15.6628C21.7934 15.7604 21.5233 15.7627 21.2793 15.6695C21.0796 15.3749 20.7955 15.1475 20.4642 15.0172C19.3297 14.5765 18.5922 14.9037 17.8169 15.2498C17.3179 15.4691 17.3158 15.4691 16.915 15.6128C15.8787 16.008 14.8067 16.4164 13.6343 15.5314C12.9271 14.9982 10.4197 13.1696 8.84845 11.9387V11.9388C8.49947 11.669 8.30633 11.2445 8.33217 10.8043C8.37962 10.3082 8.67001 9.86829 9.10747 9.62989C9.61618 9.32548 11.2744 8.61454 13.7892 7.62551C14.1226 7.49045 14.5028 7.54346 14.7865 7.76463C15.0701 7.9858 15.2143 8.34155 15.1646 8.69777C15.115 9.05418 14.879 9.3569 14.5455 9.49196C13.6492 9.87014 12.6131 10.2804 12.4826 10.3297V10.3295C12.2771 10.4006 12.1303 10.5826 12.1044 10.7986C12.0808 11.0258 12.1897 11.2463 12.3843 11.3659C12.5734 11.4888 14.5305 12.8371 14.7877 13.0223C15.0642 13.2323 15.3976 13.3542 15.7444 13.3721C16.3419 13.4023 17.7961 12.871 18.8001 12.5571C19.0875 12.4643 19.3996 12.4852 19.672 12.6157C20.3036 12.9146 21.2906 13.3721 22.0886 13.7503H22.0885C22.34 13.8683 22.5342 14.0819 22.6276 14.3436C22.7209 14.6053 22.7059 14.8933 22.5859 15.144L22.5859 15.1438Z" fill="#060606" stroke="black" stroke-width="0.5"/>
</svg>
