<svg width="24" height="24" viewBox="0 0 24 24" fill="none" xmlns="http://www.w3.org/2000/svg">
<path d="M1.33328 16.6121H3.03751C3.34712 17.1767 3.83866 17.609 4.425 17.8326C5.01163 18.0558 5.65512 18.0558 6.24152 17.8326C6.82815 17.6091 7.31964 17.1767 7.62924 16.6121H16.371H16.3708C16.6806 17.1771 17.1723 17.6095 17.7594 17.8327C18.3463 18.056 18.9902 18.0555 19.5768 17.8318C20.1635 17.6078 20.6549 17.1748 20.9639 16.6095C21.3715 16.6056 21.7683 16.4722 22.1013 16.2276C22.4344 15.9829 22.688 15.6384 22.8281 15.24L23.6413 12.9063C23.7806 12.5041 23.7978 12.0671 23.6906 11.6545C23.5835 11.2418 23.3571 10.8734 23.0424 10.599L22 9.69593V9.6734H24V8.28547H20.1004C19.0699 7.71185 17.9596 7.30876 16.8098 7.09084L16.335 7L14.9373 9.67338H8.36409L11.4047 8.56076L10.9621 7.25158L2.22721 10.4477C1.57629 10.687 1.01269 11.1301 0.614059 11.7164C0.215172 12.3026 0.000685716 13.0031 0 13.7214V15.2244C0.000446401 15.5924 0.141075 15.945 0.391076 16.2052C0.641077 16.4652 0.979935 16.6116 1.33325 16.6121L1.33328 16.6121ZM5.33329 16.6121C4.97972 16.6121 4.64066 16.466 4.39066 16.2058C4.14044 15.9456 4.00004 15.5925 4.00004 15.2244C4.00004 14.8564 4.14044 14.5033 4.39066 14.2431C4.64066 13.9829 4.97975 13.8367 5.33329 13.8367C5.68709 13.8367 6.02615 13.9829 6.27615 14.2431C6.52615 14.5033 6.66678 14.8564 6.66678 15.2244C6.66633 15.5924 6.5257 15.9451 6.2757 16.2053C6.0257 16.4653 5.68684 16.6116 5.3333 16.6121L5.33329 16.6121ZM18.6665 16.6121H18.6667C18.3129 16.6121 17.9738 16.466 17.7238 16.2058C17.4738 15.9456 17.3332 15.5925 17.3332 15.2244C17.3332 14.8564 17.4738 14.5033 17.7238 14.2431C17.9738 13.9829 18.3129 13.8367 18.6667 13.8367C19.0203 13.8367 19.3593 13.9829 19.6093 14.2431C19.8596 14.5033 20 14.8564 20 15.2244C19.9995 15.5924 19.8589 15.9451 19.6089 16.2053C19.3589 16.4653 19.02 16.6116 18.6667 16.6121L18.6665 16.6121ZM17.0388 8.5567H17.039C17.9723 8.79275 18.8676 9.16913 19.6969 9.67348H16.4551L17.0388 8.5567ZM1.33305 13.7216C1.3335 13.2904 1.46229 12.8701 1.70158 12.5184C1.94087 12.1666 2.27924 11.9006 2.66964 11.757L4.6665 11.0266V11.0612H21.494L22.188 11.6644C22.4032 11.8516 22.4826 12.159 22.3871 12.4334L21.5739 14.7671C21.5257 14.9035 21.4373 15.0206 21.3213 15.1014C21.2811 14.1261 20.7507 13.2447 19.925 12.7812C19.0994 12.3179 18.1005 12.3409 17.2953 12.842C16.4904 13.3432 15.9982 14.2483 15.9998 15.2246H7.99974C7.99706 14.7357 7.86916 14.2567 7.62898 13.8369H14.6667V12.4489H5.33297C4.62606 12.4496 3.94817 12.7424 3.44817 13.2628C2.94839 13.7832 2.66714 14.4888 2.66645 15.2246H1.33296L1.33305 13.7216Z" fill="#060606"/>
</svg>
