<svg width="24" height="24" viewBox="0 0 24 24" fill="none" xmlns="http://www.w3.org/2000/svg">
<path d="M20.5799 7.56325C20.565 7.33266 20.3734 7.15317 20.1423 7.15369H19.7669L19.7667 5.58451C19.7659 4.72455 19.4238 3.89994 18.8158 3.29173C18.2078 2.68356 17.3834 2.34131 16.5234 2.34013H13.2047V1.46494C13.2047 1.34888 13.1585 1.2376 13.0765 1.15555C12.9944 1.0735 12.883 1.02734 12.7671 1.02734H9.2663C9.0246 1.02734 8.8287 1.22324 8.8287 1.46494H6.64072C6.39902 1.46494 6.20312 1.66083 6.20312 1.90254V3.65292C6.20312 3.76898 6.24911 3.88026 6.33116 3.96231C6.41321 4.04436 6.52466 4.09051 6.64072 4.09051H8.8287C8.8287 4.20658 8.87468 4.31786 8.95673 4.39991C9.03878 4.48196 9.15023 4.52811 9.2663 4.52811H9.70389V5.4033H8.47862C7.87505 5.4033 7.29624 5.64313 6.86958 6.06976C6.44276 6.49642 6.20312 7.07523 6.20312 7.6788V20.6316C6.20312 21.2352 6.44278 21.814 6.86958 22.2407C7.29624 22.6673 7.87505 22.9071 8.47862 22.9071H13.5582C14.1618 22.9071 14.7406 22.6673 15.1673 22.2407C15.5939 21.814 15.8337 21.2352 15.8337 20.6316V7.6788C15.8337 7.07523 15.5939 6.49642 15.1673 6.06976C14.7406 5.64311 14.1618 5.4033 13.5582 5.4033H12.333V4.52811H12.7706C12.8866 4.52811 12.9979 4.48196 13.08 4.39991C13.162 4.31786 13.2082 4.20658 13.2082 4.09051V3.21532H16.5269C17.1551 3.21601 17.7573 3.46592 18.2014 3.91001C18.6455 4.35408 18.8954 4.9563 18.8961 5.58451V7.15369H18.5031C18.2717 7.15317 18.0799 7.33317 18.0655 7.5641L17.6621 14.128C17.6322 14.589 17.7944 15.0417 18.1103 15.3788C18.4262 15.7157 18.8674 15.907 19.3292 15.907C19.7911 15.907 20.2324 15.7157 20.5483 15.3788C20.864 15.0417 21.0264 14.589 20.9965 14.128L20.5799 7.56325ZM7.07827 3.21534V2.34015H8.82866V3.21534H7.07827ZM14.955 16.7808H7.07827V11.5297H14.955V16.7808ZM13.5547 22.032H8.47596C8.10468 22.032 7.74845 21.8844 7.48589 21.6219C7.22317 21.3592 7.07565 21.0031 7.07565 20.6317V17.656H14.9524V20.6317C14.9524 21.0019 14.8057 21.3573 14.5444 21.6197C14.2832 21.882 13.9285 22.0304 13.5582 22.032L13.5547 22.032ZM14.955 7.67882V10.6545H7.07827V7.67882C7.07827 7.30737 7.22579 6.95132 7.48835 6.68858C7.75091 6.42603 8.10715 6.27851 8.47859 6.27851H13.5582C13.929 6.27936 14.2843 6.42739 14.546 6.68995C14.8079 6.95234 14.9551 7.30805 14.9551 7.67883L14.955 7.67882ZM11.4542 5.40332H10.579V4.52813H11.4542V5.40332ZM12.3294 3.65294H9.70385V1.90255H12.3294V3.65294ZM19.9103 14.7792C19.7572 14.9345 19.5481 15.022 19.33 15.022C19.1119 15.022 18.903 14.9345 18.7498 14.7792C18.5991 14.6198 18.5216 14.4047 18.5363 14.1858L18.9143 8.02881H19.7325L20.1238 14.184C20.1389 14.4035 20.0614 14.6192 19.9103 14.7792H19.9103Z" fill="#060606" stroke="black" stroke-width="0.25"/>
<path d="M11.017 15.907C11.4811 15.907 11.9264 15.7225 12.2546 15.3943C12.5829 15.066 12.7674 14.6209 12.7674 14.1566C12.7674 13.6924 12.5829 13.2473 12.2546 12.9189C11.9264 12.5907 11.4811 12.4062 11.017 12.4062C10.5527 12.4062 10.1074 12.5907 9.77925 12.9189C9.45088 13.2473 9.2666 13.6924 9.2666 14.1566C9.2666 14.6209 9.45087 15.066 9.77925 15.3943C10.1074 15.7225 10.5527 15.907 11.017 15.907ZM11.017 13.2814C11.2489 13.2814 11.4717 13.3736 11.6358 13.5378C11.7999 13.7019 11.8922 13.9245 11.8922 14.1566C11.8922 14.3888 11.7999 14.6113 11.6358 14.7754C11.4717 14.9397 11.249 15.0318 11.017 15.0318C10.7849 15.0318 10.5621 14.9397 10.398 14.7754C10.2339 14.6113 10.1418 14.3888 10.1418 14.1566C10.1418 13.9245 10.2339 13.7019 10.398 13.5378C10.5621 13.3736 10.7848 13.2814 11.017 13.2814Z" fill="#060606" stroke="black" stroke-width="0.25"/>
</svg>
