<svg width="24" height="24" viewBox="0 0 24 24" fill="none" xmlns="http://www.w3.org/2000/svg">
<path d="M18.9836 3C18.4745 3.0002 17.9799 3.16898 17.5772 3.48023C17.1745 3.79129 16.8862 4.22717 16.7575 4.71958L14.248 14.3337C14.1644 14.5668 13.9438 14.7225 13.6962 14.7229H12.8973V15.8951H13.6964L13.6962 15.8953C14.0671 15.8923 14.4277 15.7736 14.7275 15.5552C15.0272 15.3369 15.2511 15.0304 15.3677 14.6783L17.8919 5.01597C17.9927 4.627 18.2928 4.32104 18.6798 4.21292C19.0667 4.10459 19.4819 4.21037 19.77 4.49042C20.0579 4.77048 20.1753 5.18239 20.0779 5.57236L16.3454 20.5844L5.837 20.6267L4.21653 16.7046C4.14195 16.5237 4.16256 16.3176 4.27148 16.1551C4.3804 15.9926 4.56311 15.8951 4.75878 15.8953H5.39915V14.7228H4.75878C4.17156 14.7228 3.62308 15.0156 3.29667 15.5039C2.9703 15.992 2.90907 16.6108 3.13358 17.1532L4.77349 21.1178C4.87162 21.3105 5.02097 21.472 5.20525 21.5848C5.38954 21.6975 5.60149 21.7572 5.81759 21.7566H16.3456C16.6072 21.757 16.8614 21.6696 17.0676 21.5085C17.2739 21.3476 17.4203 21.1221 17.4834 20.8683L21.2162 5.85634C21.3869 5.16924 21.2321 4.44195 20.7962 3.88398C20.3601 3.3262 19.6917 3.00024 18.9838 3.00004L18.9836 3Z" fill="#060606"/>
<path d="M6.13622 11.7854C5.645 12.1111 5.34964 12.6613 5.34964 13.2506C5.34964 13.8401 5.64501 14.3902 6.13622 14.716C6.42765 14.9713 6.52205 15.0732 6.52205 15.3011C6.52205 15.5301 6.42765 15.6319 6.13563 15.8873V15.8871C5.6446 16.2144 5.34961 16.7653 5.34961 17.3555C5.34961 17.9454 5.64458 18.4965 6.13563 18.8237C6.42746 19.079 6.52205 19.1808 6.52205 19.4099L7.69427 19.4097C7.68112 18.8233 7.3893 18.2781 6.90825 17.9421C6.61642 17.6868 6.52183 17.5849 6.52183 17.3559C6.52183 17.1268 6.61623 17.025 6.90825 16.7685V16.7687C7.38907 16.4325 7.68111 15.8875 7.69427 15.3011C7.6774 14.7157 7.38596 14.1725 6.9077 13.8345C6.61646 13.5794 6.52206 13.4774 6.52206 13.2497C6.52206 13.0242 6.61587 12.9235 6.90731 12.6691C7.38558 12.3318 7.6772 11.7889 7.69428 11.2037H8.8665C8.8665 11.4304 8.77211 11.5311 8.48067 11.7852L8.48087 11.7854C7.98965 12.1112 7.69429 12.6613 7.69429 13.2506C7.69429 13.8402 7.98966 14.3903 8.48087 14.7161C8.7723 14.9714 8.8667 15.0732 8.8667 15.3011C8.8667 15.5301 8.7723 15.632 8.48028 15.8873V15.8871C7.98925 16.2145 7.69426 16.7653 7.69426 17.3555C7.69426 17.9454 7.98923 18.4965 8.48028 18.8237C8.77211 19.079 8.8667 19.1809 8.8667 19.4099H10.0389V19.4097C10.0258 18.8233 9.73395 18.2781 9.2529 17.9421C8.96107 17.6868 8.86648 17.5849 8.86648 17.3559C8.86648 17.1269 8.96088 17.025 9.2529 16.7686V16.7688C9.73372 16.4326 10.0256 15.8876 10.0389 15.3012C10.0218 14.7158 9.73061 14.1725 9.25235 13.8346C8.96091 13.5793 8.86652 13.4774 8.86652 13.2495C8.86652 13.024 8.96033 12.9234 9.25176 12.669V12.6692C9.73023 12.3318 10.0219 11.789 10.0389 11.2038H11.2112C11.2112 11.4304 11.1168 11.5311 10.8253 11.7853V11.7855C10.3341 12.1112 10.039 12.6614 10.039 13.2507C10.039 13.8402 10.3341 14.3903 10.8253 14.7161C11.1168 14.9714 11.2112 15.0733 11.2112 15.3012C11.2112 15.5302 11.1168 15.632 10.8247 15.8874V15.8872C10.3337 16.2145 10.0389 16.7654 10.0389 17.3556C10.0389 17.9455 10.3337 18.4966 10.8247 18.8237C11.1166 19.0791 11.2112 19.1809 11.2112 19.41H12.3834V19.4098C12.3704 18.8233 12.0784 18.2782 11.5976 17.9422C11.3057 17.6869 11.2111 17.585 11.2111 17.356C11.2111 17.1269 11.3055 17.0251 11.5976 16.7686V16.7688C12.0784 16.4326 12.3702 15.8876 12.3834 15.3012C12.3665 14.7158 12.0753 14.1726 11.597 13.8346C11.3056 13.5793 11.2112 13.4774 11.2112 13.2496C11.2112 13.0241 11.305 12.9234 11.5964 12.669V12.6692C12.0747 12.3319 12.3663 11.789 12.3834 11.2038H13.5556L11.7974 8.85938L10.6252 10.4223L9.45274 8.85938L8.28052 10.4223L7.1081 8.85938L5.34967 11.2038H6.52209C6.52209 11.4305 6.42749 11.5314 6.13625 11.7855L6.13622 11.7854Z" fill="#060606"/>
</svg>
