<svg width="24" height="24" viewBox="0 0 24 24" fill="none" xmlns="http://www.w3.org/2000/svg">
<path d="M15.6669 8.25026C16.2267 8.25026 16.7637 8.02632 17.1597 7.62788C17.5556 7.22927 17.7781 6.68872 17.7781 6.12522C17.7781 5.56172 17.5556 5.02117 17.1597 4.62256C16.7637 4.22412 16.2267 4.00018 15.6669 4.00018C15.107 4.00018 14.57 4.22412 14.174 4.62256C13.7782 5.02117 13.5557 5.56172 13.5557 6.12522C13.5557 6.68872 13.7782 7.22927 14.174 7.62788C14.57 8.02632 15.107 8.25026 15.6669 8.25026ZM15.6669 5.06279C15.9468 5.06279 16.2154 5.17467 16.4133 5.37389C16.6112 5.57311 16.7224 5.84345 16.7224 6.12522C16.7224 6.40699 16.6112 6.67734 16.4133 6.87655C16.2154 7.07577 15.9468 7.18765 15.6669 7.18765C15.3869 7.18765 15.1184 7.07577 14.9204 6.87655C14.7225 6.67734 14.6114 6.40699 14.6114 6.12522C14.6115 5.84347 14.7229 5.57347 14.9208 5.37425C15.1187 5.17504 15.387 5.06298 15.6669 5.0628L15.6669 5.06279ZM7.2222 10.3749C7.2222 9.81144 6.9999 9.27089 6.60388 8.87245C6.20804 8.47384 5.67102 8.25008 5.11119 8.25008C4.55118 8.25008 4.01434 8.47384 3.61832 8.87245C3.22248 9.27089 3 9.81144 3 10.3749C3 10.9386 3.22248 11.479 3.61832 11.8776C4.01433 12.276 4.55118 12.5 5.11119 12.5C5.67102 12.5 6.20804 12.276 6.60388 11.8776C6.9999 11.479 7.2222 10.9386 7.2222 10.3749ZM5.11119 11.4375C4.8311 11.4375 4.56267 11.3255 4.36476 11.1263C4.16684 10.9271 4.05551 10.6568 4.05551 10.3749C4.05551 10.0932 4.16684 9.82301 4.36476 9.62379C4.56267 9.42439 4.83112 9.31251 5.11119 9.31251C5.3911 9.31251 5.65953 9.42439 5.85745 9.62379C6.05554 9.82301 6.16669 10.0932 6.16669 10.3749C6.16634 10.6567 6.05501 10.9267 5.85709 11.1259C5.65935 11.3251 5.39091 11.4372 5.1112 11.4375L5.11119 11.4375ZM19.8888 8.25008C19.329 8.25008 18.792 8.47384 18.3961 8.87245C18.0001 9.27089 17.7778 9.81144 17.7778 10.3749C17.7778 10.9386 18.0001 11.479 18.3961 11.8776C18.792 12.276 19.329 12.5 19.8888 12.5C20.4488 12.5 20.9857 12.276 21.3817 11.8776C21.7775 11.479 22 10.9386 22 10.3749C22 9.81144 21.7775 9.27089 21.3817 8.87245C20.9857 8.47384 20.4488 8.25008 19.8888 8.25008ZM19.8888 11.4375C19.6089 11.4375 19.3405 11.3255 19.1426 11.1263C18.9445 10.9271 18.8333 10.6568 18.8333 10.3749C18.8333 10.0932 18.9445 9.82301 19.1426 9.62379C19.3405 9.42439 19.6089 9.31251 19.8888 9.31251C20.1689 9.31251 20.4373 9.42439 20.6352 9.62379C20.8332 9.82301 20.9445 10.0932 20.9445 10.3749C20.9441 10.6567 20.8328 10.9267 20.6349 11.1259C20.437 11.3251 20.1687 11.4372 19.8888 11.4375L19.8888 11.4375ZM9.3333 8.25008C9.89313 8.25008 10.4302 8.02613 10.8262 7.6277C11.222 7.22909 11.4445 6.68854 11.4445 6.12504C11.4445 5.56154 11.222 5.02099 10.8262 4.62238C10.4302 4.22394 9.89313 4 9.3333 4C8.77348 4 8.23645 4.22394 7.84043 4.62238C7.44459 5.02099 7.22211 5.56154 7.22211 6.12504C7.22211 6.68854 7.44459 7.22909 7.84043 7.6277C8.23644 8.02613 8.77348 8.25008 9.3333 8.25008ZM9.3333 5.06261C9.61322 5.06261 9.88182 5.17449 10.0797 5.37371C10.2777 5.57292 10.3888 5.84327 10.3888 6.12504C10.3888 6.40681 10.2777 6.67715 10.0797 6.87637C9.88182 7.07559 9.61324 7.18747 9.3333 7.18747C9.05337 7.18747 8.78479 7.07559 8.58687 6.87637C8.38895 6.67715 8.2778 6.40681 8.2778 6.12504C8.27797 5.84329 8.3893 5.57329 8.58722 5.37407C8.78514 5.17485 9.0534 5.0628 9.33329 5.06262L9.3333 5.06261ZM12.5 10.3752V10.375C13.1408 10.3781 13.7656 10.5758 14.2926 10.9424C14.8195 11.3092 15.2242 11.8277 15.4532 12.43C15.7052 13.1016 16.1742 13.6685 16.7849 14.0394C17.3165 14.3603 17.7417 14.8323 18.0066 15.3964C18.2716 15.9602 18.3646 16.5906 18.2738 17.2078C18.1774 17.8556 17.8864 18.4581 17.4398 18.9346C16.9933 19.4109 16.4124 19.7382 15.7755 19.8725C15.5658 19.9154 15.3525 19.9371 15.1385 19.9375C14.6768 19.9376 14.2212 19.832 13.8061 19.6283C12.9805 19.2285 12.0192 19.2285 11.1936 19.6283C10.7785 19.832 10.3227 19.9376 9.86116 19.9375C9.64698 19.9371 9.43351 19.9152 9.22356 19.8724C8.58669 19.7381 8.00601 19.4106 7.55946 18.9342C7.11291 18.4577 6.82185 17.8551 6.72572 17.2073C6.63506 16.5902 6.72801 15.9598 6.99309 15.396C7.25816 14.8322 7.68334 14.3601 8.21489 14.0394C8.82561 13.6684 9.2946 13.1015 9.54676 12.4298C9.77578 11.8275 10.1805 11.3091 10.7074 10.9424C11.2345 10.5759 11.8594 10.378 12.5 10.375L12.5 10.3752ZM12.5 9.31261C11.6445 9.31278 10.8095 9.57514 10.1057 10.0645C9.40199 10.554 8.86284 11.2474 8.55997 12.0526C8.38979 12.5027 8.07506 12.8827 7.6656 13.1321C6.95979 13.5618 6.39503 14.1909 6.04195 14.9414C5.68887 15.6918 5.56305 16.5303 5.68004 17.3522C5.82406 18.3648 6.32627 19.2912 7.09429 19.9612C7.8623 20.6313 8.84461 21.0002 9.86107 21C10.4817 20.9998 11.0944 20.8579 11.6527 20.5848C12.1882 20.3262 12.8114 20.3262 13.3467 20.585C13.9051 20.8581 14.5176 20.9998 15.1384 21C16.1547 21.0002 17.1368 20.6314 17.9048 19.9614C18.6728 19.2915 19.175 18.3653 19.3192 17.3527C19.4364 16.5308 19.3106 15.6923 18.9575 14.9417C18.6044 14.1913 18.0398 13.5619 17.334 13.132C16.9248 12.8828 16.61 12.5029 16.44 12.0527C16.1371 11.2474 15.598 10.5539 14.8941 10.0646C14.1904 9.57512 13.3553 9.31274 12.4998 9.31256L12.5 9.31261Z" fill="#060606" stroke="#060606" stroke-width="0.5"/>
</svg>
