<svg width="24" height="24" viewBox="0 0 24 24" fill="none" xmlns="http://www.w3.org/2000/svg">
<path d="M16.8193 2.27256C16.4844 1.48938 15.6852 1 14.7833 1H9.21631C8.31416 1 7.51523 1.48938 7.18032 2.27256C7.07731 2.34596 7.05142 2.46835 7.07731 2.59074C7.02571 2.76212 7 2.93333 7 3.10473V20.8955C7 22.07 8.00515 23 9.2165 23H14.7835C16.0206 23 17 22.0456 17 20.8955L16.9998 3.10473C16.9998 2.93334 16.9741 2.76214 16.9225 2.59074C16.9482 2.46852 16.9225 2.37054 16.8193 2.27273L16.8193 2.27256ZM13.4947 1.73419H14.7833C15.0668 1.73419 15.3246 1.80759 15.5566 1.95439C15.0411 1.9054 14.5514 2.00338 14.139 2.22358C13.9071 2.34598 13.7009 2.49278 13.4947 2.68859V1.73419ZM10.5049 22.2902H9.21626C8.41734 22.2902 7.7471 21.6784 7.7471 20.9198L7.74728 20.5772C8.4432 20.357 9.03594 20.3814 9.49977 20.6017C10.1698 20.9442 10.4276 21.6538 10.5049 21.8252L10.5049 22.2902ZM10.5049 20.4058C10.3244 20.2101 10.0925 20.0633 9.86059 19.9408C9.49978 19.7695 9.11326 19.6716 8.67494 19.6716C8.39142 19.6716 8.0822 19.7206 7.7471 19.794V18.0077C8.44302 17.7875 9.03576 17.8119 9.49959 18.0321C10.1696 18.3747 10.4274 19.0843 10.5047 19.2557L10.5049 20.4058ZM10.5049 17.8853C10.3244 17.6895 10.0925 17.5427 9.86059 17.4203C9.49978 17.2489 9.11326 17.1511 8.67494 17.1511C8.39142 17.1511 8.0822 17.2001 7.7471 17.2735V15.4871C8.44302 15.2669 9.03576 15.2913 9.49959 15.5115C10.1696 15.8541 10.4274 16.5637 10.5047 16.7351L10.5049 17.8853ZM10.5049 15.3403C10.3244 15.1446 10.0925 14.9978 9.86059 14.8753C9.49978 14.704 9.11326 14.6062 8.67494 14.6062C8.39142 14.6062 8.0822 14.6551 7.7471 14.7285V12.9422C8.44302 12.722 9.03576 12.7464 9.49959 12.9666C10.1696 13.3092 10.4274 14.0188 10.5047 14.1902L10.5049 15.3403ZM10.5049 12.7954C10.3244 12.5996 10.0925 12.4528 9.86059 12.3304C9.49978 12.159 9.11326 12.0612 8.67494 12.0612C8.39142 12.0612 8.0822 12.1102 7.7471 12.1836V10.3972C8.44302 10.177 9.03576 10.2014 9.49959 10.4216C10.1696 10.7642 10.4274 11.4738 10.5047 11.6452L10.5049 12.7954ZM10.5049 10.2747C10.3244 10.0789 10.0925 9.93208 9.86059 9.80967C9.26786 9.51607 8.54621 9.46708 7.7471 9.66287V7.8765C8.44302 7.65629 9.03576 7.6807 9.49959 7.90091C10.1696 8.2435 10.4274 8.95309 10.5047 9.12448L10.5049 10.2747ZM10.5049 7.72973C10.3244 7.53394 10.0925 7.38714 9.86059 7.26473C9.49978 7.09335 9.11326 6.99554 8.67494 6.99554C8.39142 6.99554 8.0822 7.04453 7.7471 7.11793V5.33156C8.44302 5.11135 9.03576 5.13576 9.49959 5.35597C10.1696 5.69856 10.4274 6.40815 10.5047 6.57954L10.5049 7.72973ZM10.5049 5.18479C10.3244 4.989 10.0925 4.8422 9.86059 4.71979C9.49978 4.54841 9.11326 4.45059 8.67494 4.45059C8.39142 4.45059 8.0822 4.49958 7.7471 4.57299V3.08023C7.7471 2.98242 7.7471 2.88444 7.77281 2.78662C8.44287 2.59083 9.03574 2.59083 9.49961 2.83561C10.1697 3.17821 10.4274 3.8878 10.5048 4.05919L10.5049 5.18479ZM10.5049 2.66406C10.3244 2.46826 10.0925 2.32147 9.86059 2.19906C9.49978 2.02767 9.11326 1.92986 8.67494 1.92986H8.44302C8.67494 1.78306 8.93276 1.70966 9.21626 1.70966H10.5049L10.5049 2.66406ZM12.7214 22.2901H11.2782V1.73414H12.7214V22.2901ZM16.2266 20.9198C16.2266 21.6784 15.5822 22.2901 14.7574 22.2901H13.4688V21.8251C13.5203 21.6538 13.778 20.9442 14.4739 20.6016C14.9377 20.3568 15.5307 20.3568 16.2264 20.5772L16.2266 20.9198ZM16.2266 19.8186C15.4277 19.6228 14.706 19.6718 14.1131 19.9654C13.8812 20.0878 13.675 20.2346 13.4688 20.4304V19.3046C13.5203 19.1333 13.778 18.4237 14.4739 18.0811C14.9377 17.8363 15.5307 17.8363 16.2264 18.0567L16.2266 19.8186ZM16.2266 17.2735C15.4277 17.0777 14.706 17.1267 14.1131 17.4203C13.8812 17.5427 13.675 17.6895 13.4688 17.8853V16.7595C13.5203 16.5881 13.778 15.8786 14.4739 15.5604C14.9377 15.3156 15.5307 15.3156 16.2264 15.536L16.2266 17.2735ZM16.2266 14.7529C15.4277 14.5571 14.706 14.6061 14.1131 14.8997C13.8812 15.0221 13.675 15.1689 13.4688 15.3647L13.4689 14.2146C13.5205 14.0432 13.7782 13.3336 14.4741 12.991C14.9379 12.7462 15.5308 12.7462 16.2266 12.9666L16.2266 14.7529ZM16.2266 12.208C15.4277 12.0122 14.706 12.0612 14.1131 12.3548C13.8812 12.4772 13.675 12.624 13.4688 12.8198V11.694C13.5203 11.5226 13.778 10.8131 14.4739 10.4949C14.9377 10.2501 15.5307 10.2501 16.2264 10.4705L16.2266 12.208ZM16.2266 9.66289C15.4277 9.46709 14.706 9.51608 14.1131 9.80969C13.8812 9.93208 13.675 10.0789 13.4688 10.2747V9.14892C13.5203 8.97753 13.778 8.26794 14.4739 7.94977C14.9377 7.70499 15.5307 7.70499 16.2264 7.92536L16.2266 9.66289ZM16.2266 7.14233C15.4277 6.94654 14.706 6.99553 14.1131 7.28913C13.8812 7.41152 13.675 7.55833 13.4688 7.75413V6.62836C13.5203 6.45698 13.778 5.74739 14.4739 5.42922C14.9377 5.18443 15.5307 5.18443 16.2264 5.40481L16.2266 7.14233ZM16.2266 4.59739C15.4277 4.40159 14.706 4.45059 14.1131 4.74419C13.8812 4.86658 13.675 5.01338 13.4688 5.20919V4.08342C13.5203 3.91203 13.778 3.20245 14.4739 2.85985C14.9377 2.63964 15.5047 2.61506 16.2007 2.81086C16.2264 2.90867 16.2264 3.00665 16.2264 3.10446L16.2266 4.59739Z" fill="#060606" stroke="black" stroke-width="0.25"/>
</svg>
