<svg width="20" height="20" viewBox="0 0 20 20" fill="none" xmlns="http://www.w3.org/2000/svg">
<path d="M6.6665 4.79297C6.32484 4.79297 6.0415 4.50964 6.0415 4.16797V1.66797C6.0415 1.3263 6.32484 1.04297 6.6665 1.04297C7.00817 1.04297 7.2915 1.3263 7.2915 1.66797V4.16797C7.2915 4.50964 7.00817 4.79297 6.6665 4.79297Z" fill="#292D32"/>
<path d="M13.3335 4.79297C12.9918 4.79297 12.7085 4.50964 12.7085 4.16797V1.66797C12.7085 1.3263 12.9918 1.04297 13.3335 1.04297C13.6752 1.04297 13.9585 1.3263 13.9585 1.66797V4.16797C13.9585 4.50964 13.6752 4.79297 13.3335 4.79297Z" fill="#292D32"/>
<path d="M7.08333 12.0844C6.975 12.0844 6.86666 12.0594 6.76666 12.0177C6.65833 11.9761 6.57501 11.9177 6.49167 11.8427C6.34167 11.6844 6.25 11.4677 6.25 11.2511C6.25 11.0344 6.34167 10.8177 6.49167 10.6594C6.57501 10.5844 6.66666 10.526 6.76666 10.4844C6.96666 10.401 7.2 10.401 7.4 10.4844C7.5 10.526 7.59166 10.5844 7.67499 10.6594C7.70833 10.7011 7.74999 10.7427 7.77499 10.7844C7.80832 10.8344 7.83334 10.8844 7.85001 10.9344C7.87501 10.9844 7.89168 11.0344 7.90001 11.0844C7.90834 11.1427 7.91667 11.2011 7.91667 11.2511C7.91667 11.4677 7.82499 11.6844 7.67499 11.8427C7.59166 11.9177 7.5 11.9761 7.4 12.0177C7.3 12.0594 7.19167 12.0844 7.08333 12.0844Z" fill="#292D32"/>
<path d="M9.99984 12.082C9.8915 12.082 9.78317 12.057 9.68317 12.0154C9.57483 11.9737 9.49151 11.9154 9.40818 11.8404C9.25818 11.682 9.1665 11.4654 9.1665 11.2487C9.1665 11.1987 9.17483 11.1403 9.18316 11.082C9.19149 11.032 9.20816 10.982 9.23316 10.932C9.24983 10.882 9.27485 10.832 9.30818 10.782C9.34152 10.7404 9.37484 10.6987 9.40818 10.657C9.71651 10.3487 10.2748 10.3487 10.5915 10.657C10.6248 10.6987 10.6582 10.7404 10.6915 10.782C10.7248 10.832 10.7498 10.882 10.7665 10.932C10.7915 10.982 10.8082 11.032 10.8165 11.082C10.8248 11.1403 10.8332 11.1987 10.8332 11.2487C10.8332 11.4654 10.7415 11.682 10.5915 11.8404C10.4332 11.9904 10.2248 12.082 9.99984 12.082Z" fill="#292D32"/>
<path d="M7.08333 15.0024C6.975 15.0024 6.86666 14.9774 6.76666 14.9357C6.66666 14.894 6.57501 14.8357 6.49167 14.7607C6.34167 14.6023 6.25 14.3857 6.25 14.169C6.25 14.119 6.25832 14.0607 6.26666 14.0107C6.27499 13.9524 6.29166 13.9024 6.31666 13.8524C6.33332 13.8024 6.35834 13.7524 6.39168 13.7024C6.41668 13.6607 6.45834 13.619 6.49167 13.5774C6.57501 13.5024 6.66666 13.444 6.76666 13.4023C6.96666 13.319 7.2 13.319 7.4 13.4023C7.5 13.444 7.59166 13.5024 7.67499 13.5774C7.70833 13.619 7.74999 13.6607 7.77499 13.7024C7.80832 13.7524 7.83334 13.8024 7.85001 13.8524C7.87501 13.9024 7.89168 13.9524 7.90001 14.0107C7.90834 14.0607 7.91667 14.119 7.91667 14.169C7.91667 14.3857 7.82499 14.6023 7.67499 14.7607C7.59166 14.8357 7.5 14.894 7.4 14.9357C7.3 14.9774 7.19167 15.0024 7.08333 15.0024Z" fill="#292D32"/>
<path d="M17.0832 8.19922H2.9165C2.57484 8.19922 2.2915 7.91589 2.2915 7.57422C2.2915 7.23255 2.57484 6.94922 2.9165 6.94922H17.0832C17.4248 6.94922 17.7082 7.23255 17.7082 7.57422C17.7082 7.91589 17.4248 8.19922 17.0832 8.19922Z" fill="#292D32"/>
<path d="M13.1833 18.9833C12.8666 18.9833 12.5666 18.8667 12.35 18.65C12.0916 18.3917 11.975 18.0167 12.0333 17.625L12.1916 16.5C12.2333 16.2083 12.4083 15.8583 12.6166 15.65L15.5666 12.7C15.9666 12.3 16.3583 12.0917 16.7833 12.05C17.3083 12 17.8166 12.2167 18.3 12.7C18.8083 13.2083 19.4916 14.2417 18.3 15.4333L15.35 18.3833C15.1416 18.5917 14.7916 18.7667 14.5 18.8083L13.375 18.9667C13.3083 18.975 13.25 18.9833 13.1833 18.9833ZM16.925 13.2917C16.9166 13.2917 16.9083 13.2917 16.9 13.2917C16.7833 13.3 16.625 13.4083 16.45 13.5833L13.5 16.5333C13.475 16.5583 13.4333 16.6417 13.4333 16.675L13.2833 17.7167L14.325 17.5667C14.3583 17.5583 14.4416 17.5167 14.4666 17.4917L17.4166 14.5417C17.7833 14.175 17.8333 13.9917 17.4166 13.575C17.2833 13.45 17.0916 13.2917 16.925 13.2917Z" fill="#292D32"/>
<path d="M17.4333 16.0437C17.375 16.0437 17.3167 16.0354 17.2667 16.0187C16.1667 15.7104 15.2917 14.8354 14.9833 13.7354C14.8917 13.4021 15.0833 13.0604 15.4167 12.9604C15.75 12.8687 16.0916 13.0604 16.1916 13.3937C16.3833 14.0771 16.925 14.6187 17.6083 14.8104C17.9417 14.902 18.1333 15.2521 18.0417 15.5854C17.9583 15.8604 17.7083 16.0437 17.4333 16.0437Z" fill="#292D32"/>
<path d="M10 18.9596H6.66667C3.625 18.9596 1.875 17.2096 1.875 14.168V7.08464C1.875 4.04297 3.625 2.29297 6.66667 2.29297H13.3333C16.375 2.29297 18.125 4.04297 18.125 7.08464V10.0013C18.125 10.343 17.8417 10.6263 17.5 10.6263C17.1583 10.6263 16.875 10.343 16.875 10.0013V7.08464C16.875 4.7013 15.7167 3.54297 13.3333 3.54297H6.66667C4.28333 3.54297 3.125 4.7013 3.125 7.08464V14.168C3.125 16.5513 4.28333 17.7096 6.66667 17.7096H10C10.3417 17.7096 10.625 17.993 10.625 18.3346C10.625 18.6763 10.3417 18.9596 10 18.9596Z" fill="#292D32"/>
</svg>
