<svg width="20" height="20" viewBox="0 0 20 20" fill="none" xmlns="http://www.w3.org/2000/svg">
<path d="M5.7334 15.7484C5.39173 15.7484 5.1084 15.4651 5.1084 15.1234V13.3984C5.1084 13.0568 5.39173 12.7734 5.7334 12.7734C6.07507 12.7734 6.3584 13.0568 6.3584 13.3984V15.1234C6.3584 15.4734 6.07507 15.7484 5.7334 15.7484Z" fill="#292D32"/>
<path d="M10 15.7513C9.65833 15.7513 9.375 15.468 9.375 15.1263V11.668C9.375 11.3263 9.65833 11.043 10 11.043C10.3417 11.043 10.625 11.3263 10.625 11.668V15.1263C10.625 15.4763 10.3417 15.7513 10 15.7513Z" fill="#292D32"/>
<path d="M14.2666 15.7497C13.9249 15.7497 13.6416 15.4664 13.6416 15.1247V9.94141C13.6416 9.59974 13.9249 9.31641 14.2666 9.31641C14.6083 9.31641 14.8916 9.59974 14.8916 9.94141V15.1247C14.8916 15.4747 14.6166 15.7497 14.2666 15.7497Z" fill="#292D32"/>
<path d="M5.73364 10.9832C5.45031 10.9832 5.20031 10.7915 5.12531 10.5082C5.04197 10.1749 5.24197 9.83318 5.58364 9.74985C8.6503 8.98318 11.3503 7.30818 13.4086 4.91652L13.792 4.46652C14.017 4.20819 14.4086 4.17485 14.6753 4.39985C14.9336 4.62485 14.967 5.01652 14.742 5.28319L14.3586 5.73318C12.1336 8.33318 9.2003 10.1415 5.88364 10.9665C5.83364 10.9832 5.78364 10.9832 5.73364 10.9832Z" fill="#292D32"/>
<path d="M14.2669 7.93333C13.9252 7.93333 13.6419 7.65 13.6419 7.30833V5.5H11.8252C11.4835 5.5 11.2002 5.21667 11.2002 4.875C11.2002 4.53333 11.4835 4.25 11.8252 4.25H14.2669C14.6085 4.25 14.8919 4.53333 14.8919 4.875V7.31667C14.8919 7.65833 14.6169 7.93333 14.2669 7.93333Z" fill="#292D32"/>
<path d="M12.4998 18.9596H7.49984C2.97484 18.9596 1.0415 17.0263 1.0415 12.5013V7.5013C1.0415 2.9763 2.97484 1.04297 7.49984 1.04297H12.4998C17.0248 1.04297 18.9582 2.9763 18.9582 7.5013V12.5013C18.9582 17.0263 17.0248 18.9596 12.4998 18.9596ZM7.49984 2.29297C3.65817 2.29297 2.2915 3.65964 2.2915 7.5013V12.5013C2.2915 16.343 3.65817 17.7096 7.49984 17.7096H12.4998C16.3415 17.7096 17.7082 16.343 17.7082 12.5013V7.5013C17.7082 3.65964 16.3415 2.29297 12.4998 2.29297H7.49984Z" fill="#292D32"/>
</svg>
